<?xml version="1.0" encoding="UTF-8"?>
<svg width="418px" height="30px" viewBox="0 0 418 30" version="1.1" xmlns="http://www.w3.org/2000/svg" xmlns:xlink="http://www.w3.org/1999/xlink">
    <!-- Generator: Sketch 51.1 (57501) - http://www.bohemiancoding.com/sketch -->
    <title>Page 1</title>
    <desc>Created with Sketch.</desc>
    <defs>
        <polygon id="path-1" points="0 0.161163743 0 28.8811455 26.3117632 28.8811455 26.3117632 0.161163743 1.07428411e-20 0.161163743"></polygon>
        <polygon id="path-3" points="0.28318556 0.139590643 29.8926238 0.139590643 29.8926238 29.7192445 0.28318556 29.7192445 0.28318556 0.139590643"></polygon>
        <polygon id="path-5" points="0.0632163707 29.3457602 17.3622905 29.3457602 17.3622905 0.0867818403 0.0632163707 0.0867818403"></polygon>
        <polygon id="path-7" points="0.236615506 29.3457602 17.5356897 29.3457602 17.5356897 0.0867818403 0.236615506 0.0867818403"></polygon>
    </defs>
    <g id="Page-1" stroke="none" stroke-width="1" fill="none" fill-rule="evenodd">
        <g id="BLOG-POST-PAGE" transform="translate(-70.000000, -35.000000)">
            <g id="Page-1" transform="translate(70.000000, 35.000000)">
                <g id="Group-3" transform="translate(0.000000, 0.653697)">
                    <mask id="mask-2" fill="white">
                        <use xlink:href="#path-1"></use>
                    </mask>
                    <g id="Clip-2"></g>
                    <path d="M26.3117632,21.027189 L26.3117632,28.8811455 L22.990823,28.8811455 L22.990823,15.7758841 L6.78127359,15.7758841 L6.78127359,21.027189 L6.78127359,28.8811455 L3.34420546,28.8811455 L3.34420546,5.06388852 C3.34420546,4.41312646 3.28594335,3.90195504 3.16981547,3.53037427 C3.05368759,3.15839693 2.88722442,2.86454276 2.6708223,2.64722551 C2.5622249,2.52349744 2.44609702,2.39976937 2.32243867,2.27564474 C2.19838397,2.15191667 2.03945128,2.01986075 1.84603693,1.88066667 C1.65262258,1.74107602 1.40847659,1.60981323 1.114788,1.4856886 C0.820306723,1.36196053 0.448935317,1.23783589 -0.000118902265,1.11371126 L-0.000118902265,0.161163743 L6.78127359,0.161163743 L6.78127359,13.1038337 L22.990823,13.1038337 L22.990823,0.161163743 L26.3117632,0.161163743 L26.3117632,21.027189 Z" id="Fill-1" fill="#1A1202" mask="url(#mask-2)"></path>
                </g>
                <path d="M58.5593653,18.1257657 L53.450135,6.50762061 L48.341301,18.1257657 L58.5593653,18.1257657 Z M67.0588955,29.9298995 L63.7613394,29.9298995 L59.767016,20.8212135 L47.1566381,20.8212135 L43.1623147,29.9298995 L39.8413745,29.9298995 L50.8723339,4.50933297 C50.9191021,4.30827485 50.9575472,4.13021747 50.9884618,3.97476425 C51.0193764,3.82010417 51.03523,3.68844481 51.03523,3.57978618 C51.03523,3.08447734 50.7407487,2.68949927 50.1525789,2.39485197 C49.966695,2.2711239 49.7768477,2.17039656 49.5838297,2.09266996 C49.390019,2.01533991 49.2235558,1.95347588 49.0844402,1.90707785 C48.8985563,1.84521382 48.7202029,1.80635051 48.5501727,1.7908845 L48.5501727,0.791542398 L52.4747401,0.791542398 L54.379158,0.791542398 L67.0588955,29.9298995 Z" id="Fill-4" fill="#1A1202"></path>
                <path d="M101.164464,0.861258406 L101.73361,0.861258406 L102.244493,0.861258406 C102.391139,0.861258406 102.557999,0.853723684 102.743486,0.837861111 L102.674127,18.9156425 C102.674127,20.4495534 102.414524,21.8823403 101.89611,23.2143999 C101.377299,24.546856 100.645654,25.6933235 99.7015702,26.6534057 C98.7566935,27.6138845 97.6227623,28.3729086 96.29938,28.9304781 C94.9756015,29.4884441 93.5083476,29.7672288 91.8984109,29.7672288 C90.3193888,29.7672288 88.8679885,29.5114448 87.54421,29.0002734 C86.2204314,28.489102 85.0785733,27.7729068 84.1186357,26.8508947 C83.1586981,25.9292792 82.4001017,24.8371411 81.8428464,23.5744803 C81.2855911,22.312216 80.9911098,20.9297928 80.9601952,19.426814 L80.9601952,5.78738048 C80.9601952,5.167947 80.8864758,4.67620724 80.7398297,4.31176462 C80.5923909,3.94811513 80.4338545,3.65743348 80.2638243,3.44051279 C80.1552269,3.31678472 80.0351356,3.1847288 79.9035504,3.04553472 C79.7719653,2.90594408 79.601935,2.77071564 79.392667,2.63865972 C79.1837954,2.50739693 78.9281555,2.37573757 78.6265401,2.24368165 C78.3245284,2.11241886 77.9412667,1.99225987 77.4767552,1.88360124 L77.4767552,0.907656433 L84.3279037,0.907656433 L84.4436352,18.6368578 C84.4745498,19.8142573 84.6564703,20.9063955 84.9893966,21.9132723 C85.322323,22.9201491 85.8022918,23.7953666 86.4293031,24.5389247 C87.0563143,25.2824828 87.8228376,25.8634496 88.7284765,26.2818249 C89.6341154,26.6998037 90.6907602,26.9091897 91.8984109,26.9091897 C93.0902079,26.9091897 94.1627064,26.6998037 95.1147172,26.2818249 C96.0671243,25.8634496 96.8796231,25.2864485 97.5534026,24.5504251 C98.2267858,23.8147982 98.7412362,22.9471155 99.0975467,21.94817 C99.4534608,20.9488279 99.6318142,19.8765179 99.6318142,18.7300504 L99.6318142,0.837861111 C100.204527,0.853723684 100.71541,0.861258406 101.164464,0.861258406" id="Fill-6" fill="#1A1202"></path>
                <polygon id="Fill-8" fill="#1A1202" points="134.271294 3.67285983 125.887892 3.67285983 125.887892 29.7207911 122.473811 29.7207911 122.473811 3.67285983 114.29928 3.67285983 114.29928 0.86121875 134.271294 0.86121875"></polygon>
                <path d="M166.425994,27.2575715 L166.425994,29.9296219 L148.474526,29.9296219 L148.474526,5.32240881 C148.412301,4.71844134 148.319557,4.25366795 148.195898,3.9284852 C148.071844,3.60330245 147.847515,3.29358571 147.522515,2.99893841 C147.30532,2.78241429 146.995778,2.55399324 146.593492,2.31367526 C146.19081,2.07375384 145.656542,1.8762648 144.991086,1.72081159 L144.967702,0.814662098 L166.425994,0.814662098 L166.425994,3.7194958 L151.749094,3.7194958 L151.749094,13.8735254 L164.823587,13.8735254 L164.823587,16.5689731 L151.749094,16.5689731 L151.749094,27.2575715 L166.425994,27.2575715 Z" id="Fill-10" fill="#1A1202"></path>
                <path d="M211.367165,27.0949404 C213.02387,27.0949404 214.556521,26.8046553 215.965512,26.2236886 C217.374108,25.6427219 218.589685,24.8372997 219.611452,23.8070256 C220.633219,22.777148 221.430657,21.5454192 222.003369,20.1126323 C222.576082,18.6798454 222.862636,17.1114335 222.862636,15.407 C222.862636,13.7188257 222.576082,12.1619141 222.003369,10.7366619 C221.430657,9.31180629 220.633219,8.08007749 219.611452,7.04226864 C218.589685,6.0044598 217.374108,5.19903765 215.965512,4.62560563 C214.556521,4.05257018 213.02387,3.76585417 211.367165,3.76585417 L205.607936,3.76585417 L205.607936,22.0296243 L205.607936,27.0949404 L211.367165,27.0949404 Z M212.040549,0.907815058 C213.356797,0.907815058 214.61835,1.0819068 215.826,1.43048684 C217.033651,1.77906689 218.163619,2.27120322 219.216697,2.9061027 C220.269378,3.54139876 221.225352,4.29645724 222.084619,5.17167471 C222.943886,6.04689218 223.679099,7.02283699 224.290653,8.09950914 C224.902207,9.17618129 225.378608,10.3301835 225.719065,11.5615157 C226.059522,12.7932445 226.229949,14.0749404 226.229949,15.407 C226.229949,16.7394561 226.059522,18.0251177 225.719065,19.2643812 C225.378608,20.5036447 224.902207,21.6655782 224.290653,22.7497851 C223.679099,23.8343885 222.943886,24.8178681 222.084619,25.7006202 C221.225352,26.583769 220.269378,27.3427931 219.216697,27.9780892 C218.163619,28.6133852 217.033651,29.1047284 215.826,29.4533085 C214.61835,29.8018885 213.356797,29.9763768 212.040549,29.9763768 L202.240624,29.9763768 L202.240624,5.57815314 C202.178398,5.0205837 202.078124,4.5792076 201.938612,4.25362829 C201.799497,3.92844554 201.636997,3.67266155 201.451113,3.48706944 C201.342516,3.36334137 201.234314,3.2352511 201.126113,3.10359174 C201.017516,2.97193238 200.862547,2.8327383 200.661602,2.68521637 C200.459864,2.53848757 200.212151,2.39889693 199.918463,2.26723757 C199.623981,2.13557822 199.237153,2.0078845 198.757184,1.88375987 L198.757184,1.00061111 L202.914007,0.907815058 L203.030135,0.907815058 L212.040549,0.907815058 Z" id="Fill-12" fill="#1A1202"></path>
                <g id="Group-16" transform="translate(237.804529, 0.257132)">
                    <mask id="mask-4" fill="white">
                        <use xlink:href="#path-3"></use>
                    </mask>
                    <g id="Clip-15"></g>
                    <path d="M15.1110906,26.8378081 C16.73807,26.8378081 18.2762689,26.5241257 19.7252912,25.896761 C21.1743134,25.2693962 22.4370555,24.417576 23.51431,23.3409039 C24.5911682,22.2642317 25.4476608,21.0055365 26.0829953,19.5648183 C26.7183297,18.1241001 27.0361951,16.5905859 27.0361951,14.9642756 C27.0361951,13.3221027 26.7183297,11.7731224 26.0829953,10.3169382 C25.4476608,8.86075402 24.5911682,7.58659284 23.51431,6.49445468 C22.4370555,5.40231652 21.1743134,4.53899598 19.7252912,3.90369993 C18.2762689,3.26880044 16.73807,2.95115241 15.1110906,2.95115241 C13.4528004,2.95115241 11.8991441,3.26880044 10.4501219,3.90369993 C9.0010996,4.53899598 7.73796121,5.40231652 6.66110303,6.49445468 C5.58424486,7.58659284 4.72775221,8.86075402 4.09241778,10.3169382 C3.45708334,11.7731224 3.1396143,13.3221027 3.1396143,14.9642756 C3.1396143,16.5905859 3.45708334,18.1241001 4.09241778,19.5648183 C4.72775221,21.0055365 5.58424486,22.2642317 6.66110303,23.3409039 C7.73796121,24.417576 9.0010996,25.2693962 10.4501219,25.896761 C11.8991441,26.5241257 13.4528004,26.8378081 15.1110906,26.8378081 M15.1344747,0.13951133 C16.4820337,0.13951133 17.7875806,0.317568713 19.0503227,0.673286915 C20.3130647,1.02979825 21.4909898,1.52907273 22.5833053,2.17111038 C23.6752244,2.81354459 24.6708327,3.58367251 25.5701302,4.48149415 C26.4682386,5.37931579 27.2355546,6.37350256 27.8704926,7.46484759 C28.5058271,8.55619262 29.0016495,9.7403337 29.35796,11.0172708 C29.7146668,12.294208 29.8926238,13.6135775 29.8926238,14.975776 C29.8926238,16.3534404 29.7146668,17.6728099 29.35796,18.9342811 C29.0016495,20.1957522 28.5058271,21.3723586 27.8704926,22.4637036 C27.2355546,23.5550486 26.4682386,24.5452697 25.5701302,25.4351601 C24.6708327,26.325447 23.6752244,27.0876436 22.5833053,27.7221466 C21.4909898,28.3570461 20.3130647,28.8483893 19.0503227,29.1965727 C17.7875806,29.5451528 16.4820337,29.7192445 15.1344747,29.7192445 C13.7556048,29.7192445 12.4306372,29.5451528 11.1599684,29.1965727 C9.88890317,28.8483893 8.70780735,28.3570461 7.61549188,27.7221466 C6.5231764,27.0876436 5.52756811,26.325447 4.62906333,25.4351601 C3.73016221,24.5452697 2.95967554,23.5550486 2.31681063,22.4637036 C1.67354937,21.3723586 1.17415986,20.1957522 0.81784941,18.9342811 C0.461142616,17.6728099 0.28318556,16.3534404 0.28318556,14.975776 C0.28318556,13.6135775 0.461142616,12.294208 0.81784941,11.0172708 C1.17415986,9.7403337 1.67354937,8.55619262 2.31681063,7.46484759 C2.95967554,6.37350256 3.73016221,5.37931579 4.62906333,4.48149415 C5.52756811,3.58367251 6.5231764,2.81354459 7.61549188,2.17111038 C8.70780735,1.52907273 9.88890317,1.02979825 11.1599684,0.673286915 C12.4306372,0.317568713 13.7556048,0.13951133 15.1344747,0.13951133" id="Fill-14" fill="#1A1202" mask="url(#mask-4)"></path>
                </g>
                <g id="Group-19" transform="translate(279.816663, 0.653697)">
                    <mask id="mask-6" fill="white">
                        <use xlink:href="#path-5"></use>
                    </mask>
                    <g id="Clip-18"></g>
                    <path d="M15.5066388,3.71624397 C14.6707559,3.37559521 13.7841414,3.04644682 12.8475879,2.72879879 C11.910638,2.41115077 10.9780479,2.18669536 10.0490249,2.055036 C9.1203982,1.92337664 8.20643613,1.92694572 7.30872403,2.06653637 C6.41101193,2.20573045 5.58226315,2.56224178 4.82406304,3.13527723 C4.35955153,3.52272058 4.01473496,3.97202796 3.79040602,4.48319938 C3.56607708,4.9943708 3.45391262,5.55194024 3.45391262,6.15590771 C3.45391262,6.96172643 3.61641238,7.64302394 3.9414119,8.20098995 C4.26680776,8.75855939 4.68455105,9.29312811 5.19543445,9.80429952 C6.00040278,10.392801 6.82875522,10.9119037 7.68049178,11.3608145 C8.53143565,11.8105185 9.38753196,12.2518946 10.246799,12.6853394 C11.1056697,13.1191807 11.9336258,13.5764194 12.73146,14.0562622 C13.5288978,14.5368982 14.2760004,15.0944677 14.9723713,15.7293671 C15.5914558,16.3333346 16.0908453,17.007494 16.4705399,17.7510521 C16.8498381,18.4946102 17.109045,19.2651347 17.248557,20.0630221 C17.3876727,20.8609095 17.3991665,21.6702973 17.2830387,22.4911855 C17.1669108,23.3124702 16.9231611,24.0944951 16.5517897,24.8380532 C16.1487111,25.7057359 15.5839253,26.4294658 14.8562434,27.0104326 C14.1281652,27.5913993 13.3350871,28.0526036 12.4762165,28.3932524 C11.6169494,28.7339011 10.7144812,28.9781848 9.77039725,29.1249136 C8.82631327,29.2724355 7.92780849,29.3457999 7.07646828,29.3457999 C5.8842749,29.3457999 4.73131928,29.2569695 3.61641238,29.0785155 C2.50150548,28.9004582 1.40205587,28.6950378 0.318856239,28.4626511 L0.318856239,25.604612 C1.52650691,26.147112 2.7373283,26.5884881 3.95330213,26.9291369 C5.16848327,27.2701822 6.41814607,27.4403083 7.70387589,27.4403083 C8.61704528,27.4403083 9.43747091,27.3320462 10.1651528,27.1151255 C10.8928346,26.8986014 11.5123154,26.5730221 12.0231988,26.1391807 C13.0758802,25.1790985 13.6022209,23.8466424 13.6022209,22.1426054 C13.6022209,21.3681153 13.4357577,20.6400232 13.1032277,19.9583291 C12.769905,19.2770316 12.3252106,18.7035996 11.767559,18.2388262 C10.9780479,17.6967228 10.157226,17.2010174 9.30588574,16.75171 C8.45454552,16.3027992 7.61073578,15.8570609 6.77485286,15.4156848 C5.9385736,14.9743087 5.13360527,14.5095353 4.35955153,14.0213646 C3.58510145,13.5335905 2.88120004,12.9720554 2.24626195,12.3367593 C0.79089823,10.8809717 0.0632163707,9.16900347 0.0632163707,7.20164784 C0.0632163707,4.94004148 0.876111519,3.20507255 2.50150548,1.99674105 C3.07421805,1.54783023 3.70558908,1.18774982 4.39442953,0.916103253 C5.08287364,0.645249817 5.80302502,0.444191703 6.55409099,0.312135782 C7.30515696,0.180476425 8.07881437,0.107112025 8.87625222,0.0912494518 C9.67369007,0.0761800073 10.4556706,0.0991807383 11.2217976,0.161044773 C11.9883208,0.223305373 12.7393868,0.312135782 13.4745991,0.42832913 C14.2098115,0.544522478 14.8875544,0.672216192 15.5066388,0.811806835 L15.5066388,3.71624397 Z" id="Fill-17" fill="#1A1202" mask="url(#mask-6)"></path>
                </g>
                <g id="Group-22" transform="translate(310.334911, 0.653697)">
                    <mask id="mask-8" fill="white">
                        <use xlink:href="#path-7"></use>
                    </mask>
                    <g id="Clip-21"></g>
                    <path d="M15.680038,3.71624397 C14.844155,3.37559521 13.9575405,3.04644682 13.020987,2.72879879 C12.0840371,2.41115077 11.1514471,2.18669536 10.222424,2.055036 C9.29379734,1.92337664 8.37983527,1.92694572 7.48212317,2.06653637 C6.58441107,2.20573045 5.75566229,2.56224178 4.99746218,3.13527723 C4.53295067,3.52272058 4.1881341,3.97202796 3.96380516,4.48319938 C3.73947622,4.9943708 3.62731175,5.55194024 3.62731175,6.15590771 C3.62731175,6.96172643 3.78981151,7.64302394 4.11481104,8.20098995 C4.4402069,8.75855939 4.85795019,9.29312811 5.36883359,9.80429952 C6.17380192,10.392801 7.00215436,10.9119037 7.85389092,11.3608145 C8.70483479,11.8105185 9.56093109,12.2518946 10.4201981,12.6853394 C11.2790688,13.1191807 12.1070249,13.5764194 12.9048591,14.0562622 C13.702297,14.5368982 14.4493995,15.0944677 15.1457705,15.7293671 C15.7648549,16.3333346 16.2642444,17.007494 16.643939,17.7510521 C17.0232372,18.4946102 17.2824442,19.2651347 17.4219561,20.0630221 C17.5610718,20.8609095 17.5725657,21.6702973 17.4564378,22.4911855 C17.3403099,23.3124702 17.0965603,24.0944951 16.7251889,24.8380532 C16.3221102,25.7057359 15.7573244,26.4294658 15.0296426,27.0104326 C14.3015644,27.5913993 13.5084863,28.0526036 12.6496156,28.3932524 C11.7903486,28.7339011 10.8878804,28.9781848 9.94379639,29.1249136 C8.9997124,29.2724355 8.10120763,29.3457999 7.24986741,29.3457999 C6.05767404,29.3457999 4.90471841,29.2569695 3.78981151,29.0785155 C2.67490461,28.9004582 1.57545501,28.6950378 0.492255375,28.4626511 L0.492255375,25.604612 C1.69990604,26.147112 2.91072744,26.5884881 4.12670126,26.9291369 C5.34188241,27.2701822 6.59154521,27.4403083 7.87727503,27.4403083 C8.79044442,27.4403083 9.61087004,27.3320462 10.3385519,27.1151255 C11.0662338,26.8986014 11.6857146,26.5730221 12.196598,26.1391807 C13.2492793,25.1790985 13.77562,23.8466424 13.77562,22.1426054 C13.77562,21.3681153 13.6091569,20.6400232 13.2766269,19.9583291 C12.9433042,19.2770316 12.4986097,18.7035996 11.9409581,18.2388262 C11.1514471,17.6967228 10.3306251,17.2010174 9.47928487,16.75171 C8.62794466,16.3027992 7.78413492,15.8570609 6.948252,15.4156848 C6.11197274,14.9743087 5.30700441,14.5095353 4.53295067,14.0213646 C3.75850058,13.5335905 3.05459918,12.9720554 2.41966108,12.3367593 C0.964297366,10.8809717 0.236615506,9.16900347 0.236615506,7.20164784 C0.236615506,4.94004148 1.04951066,3.20507255 2.67490461,1.99674105 C3.24761719,1.54783023 3.87898821,1.18774982 4.56782866,0.916103253 C5.25627278,0.645249817 5.97642416,0.444191703 6.72749013,0.312135782 C7.4785561,0.180476425 8.2522135,0.107112025 9.04965136,0.0912494518 C9.84708921,0.0761800073 10.6290698,0.0991807383 11.3951967,0.161044773 C12.16172,0.223305373 12.9127859,0.312135782 13.6479983,0.42832913 C14.3832106,0.544522478 15.0609535,0.672216192 15.680038,0.811806835 L15.680038,3.71624397 Z" id="Fill-20" fill="#1A1202" mask="url(#mask-8)"></path>
                </g>
                <path d="M347.440582,21.5647319 L347.440582,29.4650864 L344.07327,29.4650864 L344.07327,5.62482876 C344.07327,4.9740667 344.003514,4.46686093 343.864398,4.10281488 C343.724886,3.73876882 343.569917,3.44848374 343.399886,3.23156305 C343.291289,3.10783498 343.171198,2.97220998 343.039613,2.82468805 C342.908027,2.67795925 342.741564,2.54233425 342.540619,2.41820961 C342.339278,2.29448154 342.087602,2.16639126 341.78559,2.03473191 C341.483975,1.90307255 341.108243,1.78331012 340.659586,1.6746515 L340.659586,0.837900768 L347.440582,0.837900768 L347.440582,21.5647319 Z" id="Fill-23" fill="#1A1202"></path>
                <path d="M382.985859,27.2575715 L382.985859,29.9296219 L365.034391,29.9296219 L365.034391,5.32240881 C364.972562,4.71844134 364.879422,4.25366795 364.755764,3.9284852 C364.631313,3.60330245 364.40738,3.29358571 364.08238,2.99893841 C363.865186,2.78241429 363.55604,2.55399324 363.153357,2.31367526 C362.750279,2.07375384 362.216408,1.8762648 361.550951,1.72081159 L361.527567,0.814662098 L382.985859,0.814662098 L382.985859,3.7194958 L368.30896,3.7194958 L368.30896,13.8735254 L381.383453,13.8735254 L381.383453,16.5689731 L368.30896,16.5689731 L368.30896,27.2575715 L382.985859,27.2575715 Z" id="Fill-25" fill="#1A1202"></path>
                <g id="Group-29" transform="translate(396.340882, 0.653697)" fill="#1A1202">
                    <path d="M12.7384356,15.1716787 C13.5279466,15.1716787 14.2746528,15.013053 14.9793469,14.695405 C15.684041,14.3781535 16.2991621,13.9324152 16.8258991,13.3593798 C17.3518434,12.7863443 17.7695867,12.0891842 18.0799216,11.2678995 C18.3894639,10.4470113 18.5440368,9.53332712 18.5440368,8.52605373 C18.5594941,7.51957346 18.4124516,6.62888999 18.1029094,5.85400329 C17.7929708,5.07951316 17.3748312,4.43271674 16.8488869,3.91361404 C16.3225462,3.39490789 15.702669,3.00389547 14.9912372,2.74018019 C14.2790126,2.47725804 13.5279466,2.34520212 12.7384356,2.34520212 L6.70057858,2.34520212 L6.70057858,15.1716787 L12.7384356,15.1716787 Z M21.6561054,28.6021228 L17.9404097,28.6021228 L12.5295639,17.4721484 C12.3745946,17.4876144 12.1728571,17.4951491 11.9255404,17.4951491 C11.6778274,17.4951491 11.4031631,17.4995113 11.1011514,17.5070461 C10.7991396,17.5149773 10.4741401,17.5225121 10.1257565,17.5300468 C9.77737285,17.5379781 9.44087944,17.5419437 9.11548358,17.5419437 C8.34103349,17.5574097 7.51307739,17.5574097 6.63082259,17.5419437 L6.70057858,28.6021228 L3.56512587,28.6485208 L3.61189409,4.97085453 C3.61189409,4.33595504 3.54570516,3.84024963 3.41451633,3.4837383 C3.28293116,3.12762354 3.13192528,2.83337281 2.9614987,2.60098611 C2.85329764,2.49272405 2.73716976,2.3765307 2.61311507,2.25240607 C2.48906037,2.128678 2.32616427,2.00098428 2.12561578,1.86892836 C1.92427462,1.73766557 1.67259816,1.60957529 1.3705864,1.48545066 C1.06897099,1.36172259 0.693239837,1.24552924 0.244581958,1.13687061 L0.244581958,0.184323099 C2.64402966,0.184323099 4.73433147,0.168857091 6.51469471,0.137925073 C8.29466161,0.106993056 9.85862273,0.118889985 11.2057854,0.172822734 C12.5525517,0.227152047 13.7332512,0.335414108 14.7470912,0.498005482 C15.7609311,0.660596857 16.7014481,0.9358125 17.5690382,1.32285928 C18.1877264,1.60164401 18.7414146,1.96172442 19.2293102,2.40349708 C19.7168095,2.84487317 20.1385162,3.38340753 20.4948266,4.01830702 C20.8816553,4.59173904 21.1717769,5.28889912 21.3659839,6.10939072 C21.5593982,6.93067544 21.6561054,7.84475621 21.6561054,8.85123648 C21.6561054,9.93583991 21.5435446,10.90425 21.3192157,11.7560702 C21.0948867,12.6082869 20.7421433,13.3633454 20.2625709,14.0216422 C19.7826021,14.679939 19.1710481,15.2529744 18.4279089,15.7411451 C17.6847698,16.2289192 16.7870577,16.6512602 15.7343763,17.007375 L21.6561054,28.6021228 Z" id="Fill-27"></path>
                </g>
            </g>
        </g>
    </g>
</svg>